<svg width="64" height="64" viewBox="0 0 64 64" fill="none" xmlns="http://www.w3.org/2000/svg">
<path fill-rule="evenodd" clip-rule="evenodd" d="M48.8924 14.11C38.5054 14.11 30.682 21.2201 30.682 31.9819V31.9698C30.682 42.5381 38.3241 49.89 49.1342 49.89C54.3216 49.89 58.7956 48.6929 62.0121 46.9637V29.769H49.8597L49.0375 35.0048H56.0992V42.9855C54.3216 43.7956 52.0725 44.2793 49.4728 44.2793C41.8428 44.2793 37.4655 38.8984 37.4655 31.9819C37.4655 25.0653 42.266 19.7811 49.1342 19.7811C53.1124 19.7811 56.8126 21.4135 59.2672 23.0943L61.6251 17.8102C58.6868 15.8392 54.0314 14.11 48.8924 14.11ZM2.00059 46.586L2.00001 46.5889L1.98792 46.5768C1.99214 46.5799 1.99636 46.5829 2.00059 46.586ZM2.00059 46.586C4.50375 48.4077 8.2967 49.89 13.572 49.89C19.9565 49.89 26.0145 45.9117 26.0145 38.0278C26.0145 31.1596 20.8755 27.266 14.1524 27.266C13.1004 27.266 11.6493 27.4111 10.549 27.7981L10.8876 20.4462H23.5115L24.3337 15.0169H5.26482L4.53931 33.5659C6.80049 32.659 9.96857 32.0302 11.9879 32.0302C15.9782 32.0302 19.6784 33.8924 19.6784 38.318C19.6784 42.3567 16.3773 44.5695 12.8585 44.5695C9.33979 44.5695 5.55503 42.9855 3.10037 41.1596L2.00059 46.586Z" fill="#DA291C"/>
</svg>
