<svg width="64" height="64" viewBox="0 0 64 64" fill="none" xmlns="http://www.w3.org/2000/svg">
<path d="M32.3886 15.5053L37.3904 25.5971L48.5769 27.2158C48.9494 27.2691 49.2604 27.5305 49.3764 27.8865C49.4932 28.2446 49.3952 28.6362 49.1257 28.8986L41.0321 36.7553L42.943 47.8473C43.0055 48.2172 42.8529 48.591 42.5478 48.811C42.3764 48.9363 42.1703 49.0004 41.9653 49.0004C41.8078 49.0004 41.6502 48.9629 41.5056 48.886L31.5 43.6502L21.4954 48.886C21.1625 49.0616 20.7583 49.0329 20.4522 48.811C20.1471 48.591 19.9945 48.2172 20.0579 47.8473L21.9689 36.7553L13.8743 28.8986C13.6048 28.6362 13.5077 28.2446 13.6236 27.8865C13.7405 27.5305 14.0506 27.2691 14.4241 27.2158L25.6096 25.5971L30.6124 15.5053C30.9452 14.8316 32.0558 14.8316 32.3886 15.5053ZM31.5 18.1705L27.156 26.9357C27.0113 27.2266 26.733 27.4289 26.409 27.4752L16.6957 28.8808L23.7243 35.7038C23.9581 35.9306 24.0641 36.2571 24.0097 36.5767L22.3503 46.2109L31.0393 41.6626C31.184 41.5866 31.3425 41.5491 31.5 41.5491C31.6585 41.5491 31.817 41.5866 31.9616 41.6626L40.6497 46.2109L38.9913 36.5767C38.9358 36.2571 39.0418 35.9306 39.2756 35.7038L46.3053 28.8808L36.591 27.4752C36.267 27.4289 35.9886 27.2266 35.845 26.9357L31.5 18.1705ZM17.9648 16.5998L21.5361 23.8054C21.7184 24.1714 21.5678 24.6153 21.1993 24.7958C20.8288 24.9773 20.385 24.8263 20.2047 24.4604L17.2991 18.6002L14.3935 24.4604C14.2865 24.6784 14.0765 24.8293 13.8347 24.8648L7.34002 25.8049L12.0397 30.366C12.215 30.5356 12.2943 30.7802 12.2537 31.0209L11.1441 37.4621L16.9523 34.421C17.3159 34.2307 17.7657 34.3688 17.9569 34.7318C18.1471 35.0938 18.0084 35.5406 17.6448 35.731L10.5032 39.4694C10.3942 39.5266 10.2753 39.5543 10.1574 39.5543C10.0039 39.5543 9.84935 39.5069 9.72056 39.4122C9.49172 39.2465 9.3768 38.9664 9.42535 38.6892L10.7231 31.1531L5.22497 25.8177C5.02189 25.6214 4.94858 25.3265 5.03675 25.0591C5.12393 24.7908 5.35673 24.5965 5.63708 24.5561L13.2344 23.4572L16.6324 16.5998C16.882 16.0957 17.7151 16.0957 17.9648 16.5998ZM45.702 16.1885C45.9844 16.1885 46.2429 16.3483 46.3677 16.5998L49.7667 23.4572L57.364 24.5561C57.6443 24.5965 57.8762 24.7908 57.9643 25.0591C58.0515 25.3265 57.9792 25.6214 57.7761 25.8177L52.278 31.1531L53.5757 38.6892C53.6233 38.9664 53.5094 39.2465 53.2795 39.4122C53.1507 39.5069 52.9972 39.5543 52.8436 39.5543C52.7248 39.5543 52.6069 39.5266 52.4969 39.4694L45.3553 35.731C44.9927 35.5406 44.854 35.0938 45.0442 34.7318C45.2344 34.3688 45.6832 34.2307 46.0478 34.421L51.8569 37.4621L50.7474 31.0209C50.7058 30.7802 50.786 30.5356 50.9614 30.366L55.6611 25.8049L49.1653 24.8648C48.9236 24.8293 48.7146 24.6784 48.6066 24.4604L45.702 18.6002L42.7964 24.4604C42.6151 24.8263 42.1713 24.9773 41.8018 24.7958C41.4333 24.6153 41.2827 24.1714 41.465 23.8054L45.0353 16.5998C45.1601 16.3483 45.4187 16.1885 45.702 16.1885ZM31.0115 27.1318C34.4253 27.1318 37.2031 29.8976 37.2031 33.2967C37.2031 36.6959 34.4253 39.4617 31.0115 39.4617C27.5977 39.4617 24.8199 36.6959 24.8199 33.2967C24.8199 29.8976 27.5977 27.1318 31.0115 27.1318ZM31.0115 28.6114C28.417 28.6114 26.3059 30.7134 26.3059 33.2967C26.3059 35.8801 28.417 37.9821 31.0115 37.9821C33.606 37.9821 35.7171 35.8801 35.7171 33.2967C35.7171 30.7134 33.606 28.6114 31.0115 28.6114ZM33.3951 31.1012L34.4432 32.1507L30.5509 36.0036L27.999 33.5406L29.0333 32.4782L30.5371 33.9302L33.3951 31.1012Z" fill="#DA291C"/>
</svg>
