<?xml version="1.0" encoding="UTF-8"?>
<svg width="172px" height="172px" viewBox="0 0 172 172" version="1.1" xmlns="http://www.w3.org/2000/svg" xmlns:xlink="http://www.w3.org/1999/xlink">
    <title>Home Monitoring@1.5x</title>
    <g id="Spotlight-Component" stroke="none" stroke-width="1" fill="none" fill-rule="evenodd">
        <g id="01-Home-Page-Spotlight-component-Copy" transform="translate(-753.000000, -481.000000)">
            <g id="Home-Monitoring" transform="translate(753.000000, 481.000000)">
                <circle id="Oval-Copy-20" stroke="#E9E9E9" stroke-width="2" fill="#FFFFFF" cx="86" cy="86" r="85"></circle>
                <g id="RDS-/-64px-/-Products-/-Connected-Home-Copy-4" transform="translate(51.625000, 51.625000)" fill="#DA291C" fill-rule="nonzero">
                    <path d="M31.7477303,1.25292779 C33.4203515,-0.363966274 35.9234819,-0.413934363 37.6468849,1.09150807 L37.8671224,1.29669003 L68.75,31.9575002 C67.6966128,33.1894137 65.8440105,33.3341378 64.6120971,32.2807506 C64.5568075,32.2334735 64.5032949,32.184157 64.4516701,32.1329034 L35.8124349,3.69960239 L35.8124349,3.69960239 C35.2855327,3.17648902 34.4994793,3.12758886 33.9240098,3.55626118 L33.7726375,3.68501497 L4.30026804,32.1754478 C3.13352795,33.3033154 1.27338089,33.271803 0.145513304,32.1050629 C0.0950209963,32.0528303 0.0464832041,31.9987431 0,31.9429128 L0,31.9429128 L0,31.9429128 L31.7477303,1.25292779 Z M9.375,37.5 L9.375,60.9375 C9.375,61.738806 9.9781878,62.3992299 10.7552795,62.4894879 L10.9375,62.5 L57.8125,62.5 C58.613806,62.5 59.2742299,61.8968122 59.3644879,61.1197205 L59.375,60.9375 L59.375,37.5 L62.5,37.5 L62.5,60.9375 C62.5,63.4338764 60.5485626,65.4744701 58.0879262,65.6170427 L57.8125,65.625 L10.9375,65.625 C8.44112362,65.625 6.40052988,63.6735626 6.25795733,61.2129262 L6.25,60.9375 L6.25,37.5 L9.375,37.5 Z" id="🎨-Icon-Colour"></path>
                </g>
            </g>
        </g>
    </g>
</svg>