<svg width="64" height="64" viewBox="0 0 64 64" fill="none" xmlns="http://www.w3.org/2000/svg">
<path d="M29.6812 53.8651C30.9133 54.0076 32.1549 54.0512 33.3939 53.9954L33.5244 55.9999H32.0594C31.1947 56.0027 30.3305 55.9592 29.4705 55.8696L29.6812 53.8651ZM37.1367 53.354L37.5983 55.3584C36.926 55.5188 36.2337 55.6491 35.5413 55.7493L35.2503 53.7448C35.8824 53.6546 36.5246 53.5344 37.1367 53.354ZM24.2627 52.5522C25.4229 52.9864 26.618 53.3217 27.8349 53.5544L27.4636 55.5589C26.1312 55.2987 24.8224 54.93 23.5502 54.4564L24.2627 52.5522ZM19.3458 49.9463C20.3573 50.6611 21.4282 51.2881 22.5468 51.8205L21.6838 53.6246C20.4622 53.0558 19.2908 52.3853 18.1818 51.6201L19.3458 49.9463ZM47.4521 13.5951C47.9939 14.006 48.5057 14.5172 48.9974 15.0083C57.2579 23.3088 58.338 36.3432 51.5561 45.8873C52.0921 46.5829 52.3847 47.435 52.389 48.3127C52.3966 50.1307 51.1784 51.7263 49.4211 52.2C47.6638 52.6737 45.8073 51.907 44.8981 50.332C43.9889 48.757 44.2547 46.7681 45.5455 45.4864C46.7233 44.3611 48.4561 44.0385 49.9607 44.6645C56.1332 35.9207 55.1305 24.0127 47.5825 16.4214C47.1711 15.9704 46.6493 15.5395 46.1677 15.1285L47.4521 13.5951ZM18.5431 12.9136C19.691 14.0589 20.0357 15.7819 19.4165 17.2799C18.7972 18.7779 17.3359 19.7561 15.7134 19.7589C15.1188 19.7539 14.5327 19.6169 13.9975 19.358C7.86387 28.1011 8.88256 39.9773 16.4158 47.551C16.8272 48.002 17.349 48.433 17.8306 48.8439L16.5462 50.3773C16.0044 49.9664 15.4926 49.4552 15.0009 48.9641C6.73806 40.6595 5.66204 27.6188 12.4522 18.0751C11.9652 17.3972 11.7021 16.5843 11.6996 15.7499C11.6988 14.6864 12.1211 13.6661 12.8737 12.9136C14.4598 11.4004 16.9569 11.4004 18.5431 12.9136ZM46.9614 46.9016C46.1778 47.6841 46.1773 48.9528 46.9604 49.7359C47.7572 50.4881 49.0033 50.4881 49.8001 49.7359C50.5832 48.9528 50.5827 47.6841 49.799 46.9016C49.0154 46.1192 47.7451 46.1192 46.9614 46.9016ZM32.0594 16.0105C36.3174 16.0105 40.401 17.7 43.4119 20.7073C46.4228 23.7146 48.1143 27.7934 48.1143 32.0463C48.1143 40.9027 40.9263 48.0822 32.0594 48.0822C23.1924 48.0822 16.0044 40.9027 16.0044 32.0463C16.0044 23.19 23.1924 16.0105 32.0594 16.0105ZM31.0559 41.0665H26.8014C27.0499 42.5675 27.4087 44.0481 27.875 45.4964C28.9103 45.8082 29.9772 46.0032 31.0559 46.0777V41.0665ZM37.3174 41.0665H33.0628V46.0777C34.1434 45.9869 35.2104 45.7751 36.2437 45.4463C36.7076 44.0143 37.0665 42.5505 37.3174 41.0665ZM42.8062 41.0665H39.3644C39.1235 42.4295 38.8727 43.5721 38.6419 44.434C40.2323 43.5871 41.6458 42.444 42.8062 41.0665ZM24.7543 41.0665H21.3126C22.4729 42.444 23.8864 43.5871 25.4768 44.434C25.246 43.5721 24.9952 42.4496 24.7543 41.0665ZM24.082 33.0486H18.0614C18.2164 35.1662 18.8475 37.2217 19.9077 39.062H24.5035C24.2532 37.0667 24.1125 35.0592 24.082 33.0486ZM31.0559 33.0486H26.0387C26.0743 35.0597 26.2216 37.0673 26.4803 39.062H31.0559V33.0486ZM38.08 33.0486H33.0628V39.062H37.6485C37.9037 37.0671 38.0478 35.0595 38.08 33.0486ZM46.1075 33.0486H40.0868C40.0531 35.0594 39.9091 37.0669 39.6554 39.062H44.2611C45.3214 37.2217 45.9525 35.1662 46.1075 33.0486ZM31.0559 25.0307H26.4702C26.215 27.0256 26.0709 29.0332 26.0387 31.0441H31.0559V25.0307ZM24.4132 25.0307H19.8576C18.7973 26.871 18.1662 28.9265 18.0113 31.0441H24.0319C24.049 29.0342 24.1763 27.0267 24.4132 25.0307ZM44.221 25.0307H39.6654C39.9157 27.026 40.0564 29.0334 40.0868 31.0441H46.1075C45.9402 28.9233 45.2953 26.8676 44.221 25.0307ZM37.6385 25.0307H33.0628V31.0441H38.08C38.0445 29.033 37.8971 27.0254 37.6385 25.0307ZM33.0628 18.0651V23.0262H37.3174C37.0665 21.5421 36.7076 20.0783 36.2437 18.6464C35.2084 18.3346 34.1415 18.1396 33.0628 18.0651ZM31.0559 18.0651C29.9772 18.1396 28.9103 18.3346 27.875 18.6464C27.4111 20.0783 27.0523 21.5421 26.8014 23.0262H31.0559V18.0651ZM38.6419 19.6587C38.8727 20.5206 39.1235 21.6431 39.3644 23.0262H42.8062C41.6458 21.6487 40.2323 20.5056 38.6419 19.6587ZM25.4768 19.6587C23.8864 20.5056 22.4729 21.6487 21.3126 23.0262H24.7543C24.9952 21.6631 25.246 20.5206 25.4768 19.6587ZM14.2885 14.3468C13.9117 14.7228 13.6999 15.233 13.6999 15.765C13.6999 16.297 13.9117 16.8072 14.2885 17.1831C14.6649 17.5595 15.1757 17.771 15.7084 17.771C16.241 17.771 16.7518 17.5595 17.1282 17.1831C17.9124 16.3999 17.9124 15.13 17.1282 14.3468C16.3441 13.5636 15.0727 13.5636 14.2885 14.3468ZM42.2944 10.3078C43.5275 10.8961 44.709 11.5867 45.8265 12.3724L44.6725 14.006C43.646 13.2899 42.5619 12.6596 41.4314 12.1218L42.2944 10.3078ZM36.4544 8.42356C37.8005 8.67692 39.1229 9.04235 40.4079 9.516L39.7055 11.4303C38.5281 10.9959 37.3165 10.6607 36.0831 10.428L36.4544 8.42356ZM28.2965 8.27322L28.6075 10.2777C27.9854 10.3779 27.3432 10.4982 26.7211 10.6385L26.2394 8.69416C26.9218 8.52378 27.6141 8.38347 28.2965 8.27322ZM30.3334 8.06275C31.6972 7.96234 33.0672 7.98247 34.4275 8.12288L34.2268 10.1274C32.98 9.99697 31.7242 9.97685 30.4739 10.0672L30.3334 8.06275Z" fill="#DA291C"/>
</svg>
