<?xml version="1.0" encoding="UTF-8"?>
<svg width="172px" height="172px" viewBox="0 0 172 172" version="1.1" xmlns="http://www.w3.org/2000/svg" xmlns:xlink="http://www.w3.org/1999/xlink">
    <title>Promotions@1.5x</title>
    <g id="Spotlight-Component" stroke="none" stroke-width="1" fill="none" fill-rule="evenodd">
        <g id="01-Home-Page-Spotlight-component-Copy" transform="translate(-949.000000, -481.000000)">
            <g id="Promotions" transform="translate(949.000000, 481.000000)">
                <circle id="Oval-Copy-19" stroke="#E9E9E9" stroke-width="2" fill="#FFFFFF" cx="86" cy="86" r="85"></circle>
                <g id="RDS-/-64px-/-Products-/-Promotion-Copy-4" transform="translate(45.375000, 47.148069)" fill="#DA291C" fill-rule="nonzero">
                    <path d="M78.0332004,43.5565486 L78.2263784,43.7880335 L80.2476803,46.3784595 L80.3701834,46.5422311 C81.8260861,48.5830774 81.4303067,51.3908157 79.514232,52.952945 L79.278649,53.1340386 L61.528258,65.8562585 C60.818368,66.3648953 59.9828338,66.6656682 59.1143179,66.7255078 L58.7876429,66.7365309 L32.947333,66.7365309 C32.6803389,66.7365309 32.4180566,66.8058189 32.1871853,66.9349465 L32.0191361,67.042028 L30.1517485,68.4136153 C31.4207554,70.2292755 31.2589884,72.7220685 29.7198464,74.3582099 L29.50311,74.5739475 L27.2053909,76.7234499 C25.3756965,78.4336035 22.548701,78.4036837 20.7551293,76.7014038 L20.5446752,76.4888156 L1.2661361,55.7591086 C-0.441055109,53.9245516 -0.409644047,51.0900429 1.28655329,49.2932793 L1.49857795,49.0822659 L3.79472657,46.9343382 C5.62442091,45.2241846 8.45141647,45.2541044 10.2449881,46.9548096 L10.4554422,47.1673978 L11.0883751,47.8492546 L12.3181182,46.791038 C13.0861186,46.1296526 14.0472971,45.7359709 15.0508805,45.6635334 L15.3869789,45.6509356 L51.5835159,45.6509356 C54.0932597,45.6509356 56.1428315,47.6177697 56.2873224,50.0979648 L56.2951751,50.3751168 L56.2951751,52.831691 L71.9692949,42.7282422 C73.9293452,41.4637364 76.5019112,41.8322225 78.0332004,43.5565486 M6.08930462,49.110611 L5.93853153,49.2365891 L3.64081236,51.3860916 C3.05499606,51.9325218 2.98118007,52.8253921 3.43821101,53.4584324 L3.56385526,53.6111809 L22.8423944,74.3424626 C23.3889469,74.9282611 24.2778799,75.003848 24.9108128,74.5456024 L25.0615859,74.4196243 L27.3593051,72.2701218 C27.9451214,71.7236915 28.0205079,70.832396 27.563477,70.197781 L27.4661027,70.0796765 L27.0137834,69.5899364 L8.15772304,49.3153255 C7.61117057,48.7279523 6.72380807,48.6523654 6.08930462,49.110611 M73.8272592,45.2855989 L73.6670628,45.3769331 L57.8076178,55.6016359 C57.1432738,56.0315364 56.3831261,56.2850674 55.5978496,56.3401829 L55.3591255,56.351206 C54.5518612,57.4346182 53.2922776,58.1574179 51.8615038,58.2408784 L51.5835159,58.2487521 L33.1813454,58.2487521 C33.1813454,56.5102534 34.5885609,55.099298 36.3224515,55.099298 L51.5835159,55.099298 C52.3892096,55.099298 53.0535536,54.4914533 53.1430751,53.708814 L53.154069,53.5245709 L53.154069,50.3751168 C53.154069,49.5672818 52.5478355,48.902747 51.7672706,48.8114128 L51.5835159,48.8003897 L15.3869789,48.8003897 C15.0885738,48.8003897 14.7948804,48.8869997 14.5435919,49.0460471 L14.3645488,49.1798989 L13.2321801,50.1530803 L20.1865891,57.6314591 L20.2682579,57.6314591 L28.0393546,66.060973 L30.1611718,64.5019932 C30.789393,64.0405982 31.5197002,63.7429748 32.2845596,63.6343186 L32.6143757,63.5996746 L32.947333,63.5870768 L58.7876429,63.5870768 C59.0499253,63.5870768 59.307496,63.522513 59.5367967,63.3981096 L59.7017048,63.2926029 L77.4520958,50.5719577 C78.1023047,50.1042637 78.2923417,49.2318649 77.9201206,48.5421345 L77.8148935,48.3752134 L75.7543279,45.7312467 C75.2925853,45.1391493 74.485321,44.9643546 73.8272592,45.2855989 M54.8256573,1.89474264 C57.7784765,4.7934447 55.8844628,8.3517902 52.2771425,10.7266598 L58.9375,10.7269306 C60.0420695,10.7269306 60.9375,11.6223611 60.9375,12.7269306 L60.9375,19.6644306 C60.9375,20.7690001 60.0420695,21.6644306 58.9375,21.6644306 L57.812,21.664 L57.8125,38.4144306 C57.8125,39.5190001 56.9170695,40.4144306 55.8125,40.4144306 L25.4375,40.4144306 C24.3329305,40.4144306 23.4375,39.5190001 23.4375,38.4144306 L23.437,21.664 L22.3125,21.6644306 C21.2079305,21.6644306 20.3125,20.7690001 20.3125,19.6644306 L20.3125,12.7269306 C20.3125,11.6223611 21.2079305,10.7269306 22.3125,10.7269306 L29.7577969,10.7266598 C26.1504765,8.3517902 24.2564629,4.7934447 27.209282,1.89474264 C30.1961606,-1.03739466 35.0446326,-0.253659273 38.7331205,2.1207387 C39.6929188,2.73859167 40.4544228,3.62838617 41.0176326,4.79012219 C41.5805165,3.62838617 42.3420206,2.73859167 43.3018189,2.1207387 C46.9903068,-0.253659273 51.8387787,-1.03739466 54.8256573,1.89474264 Z M54.6875,31.0394306 L42.1875,31.0394306 L42.1875,37.2894306 L54.6875,37.2894306 L54.6875,31.0394306 Z M39.0625,31.0394306 L26.5625,31.0394306 L26.5625,37.2894306 L39.0625,37.2894306 L39.0625,31.0394306 Z M54.6875,21.6644306 L42.1875,21.6644306 L42.1875,27.9144306 L54.6875,27.9144306 L54.6875,21.6644306 Z M39.0625,21.6644306 L26.5625,21.6644306 L26.5625,27.9144306 L39.0625,27.9144306 L39.0625,21.6644306 Z M57.8125,13.8519306 L23.4375,13.8519306 L23.4375,18.5394306 L57.8125,18.5394306 L57.8125,13.8519306 Z M37.1387281,3.68495748 C34.8218693,2.1935212 31.776387,1.70123162 29.9002318,3.54300203 C28.0240767,5.38477245 29.263012,7.65049994 31.5798707,9.14193622 C33.1244432,10.1362271 35.7044157,10.4327195 39.3197883,10.0314134 C39.4103206,6.79473365 38.6833005,4.67924833 37.1387281,3.68495748 Z M44.8962113,3.68495748 C43.3516388,4.67924833 42.6246187,6.79473365 42.715151,10.0314134 C46.3305236,10.4327195 48.9104961,10.1362271 50.4550686,9.14193622 C52.7719273,7.65049994 54.0108627,5.38477245 52.1347075,3.54300203 C50.2585523,1.70123162 47.21307,2.1935212 44.8962113,3.68495748 Z" id="🎨-Icon-Colour"></path>
                </g>
            </g>
        </g>
    </g>
</svg>