<?xml version="1.0" encoding="UTF-8"?>
<svg width="172px" height="172px" viewBox="0 0 172 172" version="1.1" xmlns="http://www.w3.org/2000/svg" xmlns:xlink="http://www.w3.org/1999/xlink">
    <title>TV &amp; Streaming@1.5x</title>
    <g id="Spotlight-Component" stroke="none" stroke-width="1" fill="none" fill-rule="evenodd">
        <g id="01-Home-Page-Spotlight-component-Copy" transform="translate(-360.000000, -481.000000)">
            <g id="TV-&amp;-Streaming" transform="translate(360.000000, 481.000000)">
                <circle id="Oval-Copy-22" stroke="#E9E9E9" stroke-width="2" fill="#FFFFFF" cx="86" cy="86" r="85"></circle>
                <g id="RDS-/-64px-/-Products-/-TV-&amp;-Streaming-Copy-5" transform="translate(48.500000, 56.312500)" fill="#DA291C" fill-rule="nonzero">
                    <path d="M35.9375,50 L6.25,50 C2.79822031,50 0,47.2017797 0,43.75 L0,6.25 C0,2.79822031 2.79822031,0 6.25,0 L70.3125,0 C73.7642797,0 76.5625,2.79822031 76.5625,6.25 L76.5625,43.75 C76.5625,47.2017797 73.7642797,50 70.3125,50 L40.625,50 L40.625,56.25 L56.25,56.25 C57.9163764,56.25 59.2781211,57.5542834 59.3700531,59.1976693 L59.375,59.375 L17.1875,59.375 C17.1875,57.6491102 18.5866102,56.25 20.3125,56.25 L35.9375,56.25 L35.9375,50 Z M70.3125,3.125 L6.25,3.125 C4.6025597,3.125 3.252867,4.39980905 3.13357146,6.01677759 L3.125,6.25 L3.125,43.75 C3.125,45.3974403 4.39980905,46.747133 6.01677759,46.8664285 L6.25,46.875 L70.3125,46.875 C71.9599403,46.875 73.309633,45.600191 73.4289285,43.9832224 L73.4375,43.75 L73.4375,6.25 C73.4375,4.6025597 72.162691,3.252867 70.5457224,3.13357146 L70.3125,3.125 Z" id="🎨-Pictogram-Colour"></path>
                </g>
            </g>
        </g>
    </g>
</svg>