<svg width="64" height="64" viewBox="0 0 64 64" fill="none" xmlns="http://www.w3.org/2000/svg">
<path d="M56.0652 37.2527L57.3589 38.8991L57.4374 39.0037C58.4059 40.3533 58.0927 42.2295 56.7379 43.1942L45.3781 51.2834C44.8665 51.6477 44.2534 51.8435 43.6245 51.8435H27.0865C26.8727 51.8435 26.6644 51.9115 26.492 52.0375L25.2782 52.9255C26.1363 54.1376 25.9908 55.8242 24.8787 56.8612L23.4141 58.227C22.2008 59.3584 20.2965 59.2882 19.1607 58.0702L6.82142 44.838C5.68563 43.62 5.74846 41.7154 6.96176 40.584L8.42635 39.2183C9.63965 38.0869 11.544 38.157 12.6798 39.375L13.103 39.8291L13.8839 39.1613C14.376 38.7404 14.9897 38.49 15.6329 38.4442L15.8482 38.4365H39.0137C40.6196 38.4365 41.9323 39.687 42.024 41.2639L42.0291 41.4404L42.029 43.0021L52.0596 36.5776C53.3695 35.7385 55.1053 36.031 56.0652 37.2527ZM11.2152 40.7408C10.8366 40.3348 10.2018 40.3114 9.79737 40.6885L8.33279 42.0543C7.92835 42.4314 7.90741 43.0663 8.28601 43.4723L20.6253 56.7045C21.0038 57.1105 21.6386 57.1339 22.0431 56.7567L23.5076 55.391C23.9121 55.0138 23.933 54.379 23.5544 53.973L11.2152 40.7408ZM53.147 38.2619L42.9971 44.7638C42.5284 45.0641 41.9856 45.2289 41.4293 45.2405C40.9133 45.9286 40.107 46.3888 39.1909 46.4417L39.0137 46.4468H27.2368C27.2368 45.3408 28.1369 44.4442 29.2471 44.4442H39.0137C39.5292 44.4442 39.954 44.0577 40.0121 43.5597L40.0188 43.4429V41.4404C40.0188 40.9269 39.6308 40.5037 39.1309 40.4458L39.0137 40.4391H15.8482C15.656 40.4391 15.4689 40.4939 15.3085 40.5957L15.1934 40.6807L14.472 41.2971L18.907 46.0531H18.9719L23.9454 51.4138L25.3028 50.4228C25.7627 50.0868 26.3074 49.8884 26.8734 49.8485L27.0865 49.841H43.6245C43.8341 49.841 44.0385 49.7757 44.209 49.6542L55.5688 41.5651C56.0204 41.2435 56.1248 40.6181 55.802 40.1683L54.4822 38.487C54.1622 38.0798 53.5836 37.9823 53.147 38.2619ZM31.9052 16.0154C37.4565 16.0154 41.9567 20.4983 41.9567 26.0282C41.9567 31.5582 37.4565 36.0411 31.9052 36.0411C26.3538 36.0411 21.8536 31.5582 21.8536 26.0282C21.8536 20.4983 26.3538 16.0154 31.9052 16.0154ZM31.9052 17.5173C27.1865 17.5173 23.3613 21.3278 23.3613 26.0282C23.3613 30.7287 27.1865 34.5392 31.9052 34.5392C36.6238 34.5392 40.449 30.7287 40.449 26.0282C40.449 21.3278 36.6238 17.5173 31.9052 17.5173ZM32.5053 18.018L32.5049 21.205L35.772 21.2059C35.772 22.0354 35.097 22.7079 34.2643 22.7079L32.5049 22.707V25.207L33.7627 25.2084C35.2318 25.2102 36.4326 26.3528 36.5207 27.7951L36.5259 27.9628C36.5271 29.4285 35.3795 30.6264 33.931 30.7131L33.7577 30.7171L32.5049 30.716L32.5053 33.9837C31.6726 33.9837 30.9975 33.3113 30.9975 32.4818L30.9969 30.716L27.7304 30.7145C27.7308 29.885 28.4061 29.2129 29.2388 29.2132L30.9969 29.214V26.709L29.738 26.7085C28.2129 26.7078 26.9769 25.476 26.9769 23.9568C26.9769 22.4938 28.1234 21.2976 29.5701 21.211L29.7384 21.2059L30.9969 21.205L30.9975 19.5199C30.9975 18.6904 31.6726 18.018 32.5053 18.018ZM32.5049 26.709V29.214L33.7798 29.2152L33.8911 29.2098C34.4824 29.1499 34.9522 28.6818 35.0118 28.0926L35.0181 27.9646C35.0176 27.3152 34.5231 26.7818 33.8898 26.7169L33.7614 26.7103L32.5049 26.709ZM30.9969 22.707L29.7384 22.7079C29.0459 22.7079 28.4846 23.267 28.4846 23.9568C28.4846 24.6037 28.978 25.1358 29.6105 25.2L29.7387 25.2066L30.9969 25.207V22.707ZM27.9821 6.00257V14.0128C26.8718 14.0128 25.9718 13.1163 25.9718 12.0103V4C27.082 4 27.9821 4.89658 27.9821 6.00257ZM38.0336 6.00257V14.0128C36.9233 14.0128 36.0233 13.1163 36.0233 12.0103V4C37.1336 4 38.0336 4.89658 38.0336 6.00257ZM33.0078 6.00257V12.0103C31.8976 12.0103 30.9975 11.1137 30.9975 10.0077V4C32.1078 4 33.0078 4.89658 33.0078 6.00257Z" fill="#DA291C"/>
</svg>
