<?xml version="1.0" encoding="UTF-8"?>
<svg width="172px" height="172px" viewBox="0 0 172 172" version="1.1" xmlns="http://www.w3.org/2000/svg" xmlns:xlink="http://www.w3.org/1999/xlink">
    <title>Wireless@1.5x</title>
    <g id="Spotlight-Component" stroke="none" stroke-width="1" fill="none" fill-rule="evenodd">
        <g id="01-Home-Page-Spotlight-component-Copy" transform="translate(-165.000000, -481.000000)">
            <g id="Wireless" transform="translate(165.000000, 481.000000)">
                <circle id="Oval-Copy-23" stroke="#E9E9E9" stroke-width="2" fill="#FFFFFF" cx="86" cy="86" r="85"></circle>
                <g id="RDS-/-64px-/-Products-/-Wireless-Copy-5" transform="translate(64.125000, 45.375000)" fill="#DA291C" fill-rule="nonzero">
                    <path d="M35.3117988,14.0625 L14.0629551,14.0625 C12.3371592,14.0625 10.9381251,12.6633898 10.9381251,10.9375 L35.3117988,10.9375 C39.948643,11.0048173 43.6720785,14.746461 43.7483708,19.3526065 L43.7488397,72.515625 C43.7864042,74.8029315 42.9105048,77.0108203 41.3151491,78.6502548 C39.7197934,80.2896893 37.53666,81.2253527 35.2493022,81.25 L8.37576456,81.25 C3.66028355,81.1305812 -0.0774786182,77.2322178 0.00122026102,72.515625 L0.00122026102,0 L3.12605022,0 L3.12605022,72.515625 C3.05523836,75.5035964 5.38981125,77.9981121 8.37576456,78.125 L35.2493022,78.125 C36.7079956,78.1004767 38.096416,77.4940677 39.1057726,76.4406411 C40.0520444,75.4530537 40.5915976,74.1493484 40.6242646,72.7884834 L40.6240098,19.609375 C40.6850878,16.612059 38.3087961,14.1307958 35.3117988,14.0625 Z M21.0926022,65.625 C22.3869492,65.625 23.4362247,66.6743326 23.4362247,67.96875 C23.4362247,69.2631674 22.3869492,70.3125 21.0926022,70.3125 C19.7982553,70.3125 18.7489798,69.2631674 18.7489798,67.96875 C18.7489798,66.6743326 19.7982553,65.625 21.0926022,65.625 Z" id="🎨-Pictogram-Colour"></path>
                </g>
            </g>
        </g>
    </g>
</svg>